<svg width="11" height="20" viewBox="0 0 11 20" fill="none" xmlns="http://www.w3.org/2000/svg">
<path d="M9.40234 7H7V5C7 3.96875 7.08594 3.31641 8.5625 3.31641H9.42969C9.98437 3.31641 10.4297 2.87109 10.4297 2.31641V1.0625C10.4297 0.539062 10.0313 0.09375 9.50781 0.058594C8.90234 0.019531 8.30078 0 7.69141 0C4.98047 0 3 1.65625 3 4.69922V7H1C0.449219 7 0 7.44922 0 8V10C0 10.5508 0.449219 11 1 11H3V19C3 19.5508 3.44922 20 4 20H6C6.55078 20 7 19.5508 7 19V10.9961H9.17578C9.68359 10.9961 10.1094 10.6133 10.168 10.1094L10.3945 8.11328C10.4648 7.51953 10 7 9.40234 7Z" fill="white"/>
</svg>
