<svg width="18" height="18" viewBox="0 0 18 18" fill="none" xmlns="http://www.w3.org/2000/svg">
<path d="M5 0C2.24219 0 0 2.24219 0 5V13C0 15.7578 2.24219 18 5 18H13C15.7578 18 18 15.7578 18 13V5C18 2.24219 15.7578 0 13 0H5ZM5 2H13C14.6523 2 16 3.34766 16 5V13C16 14.6523 14.6523 16 13 16H5C3.34766 16 2 14.6523 2 13V5C2 3.34766 3.34766 2 5 2ZM14 3C13.4492 3 13 3.44922 13 4C13 4.55078 13.4492 5 14 5C14.5508 5 15 4.55078 15 4C15 3.44922 14.5508 3 14 3ZM9 4C6.24219 4 4 6.24219 4 9C4 11.7578 6.24219 14 9 14C11.7578 14 14 11.7578 14 9C14 6.24219 11.7578 4 9 4ZM9 6C10.6523 6 12 7.34766 12 9C12 10.6523 10.6523 12 9 12C7.34766 12 6 10.6523 6 9C6 7.34766 7.34766 6 9 6Z" fill="white"/>
</svg>
