<svg width="20" height="22" viewBox="0 0 20 22" fill="none" xmlns="http://www.w3.org/2000/svg">
<path d="M7.54688 0C3.38588 0 0 3.38392 0 7.54492V11.043C0 13.269 0.326 16.3058 3 17.7598V20.2422L5.06641 21.2754L8.55273 18.9961L12.3281 18.9648C16.4151 18.9648 20 15.263 20 11.043V7.54492C20 3.38392 16.6141 0 12.4531 0H7.54688ZM7.54688 2H12.4531C15.5111 2 18 4.48692 18 7.54492V11.041C18 14.195 15.3503 16.9629 12.3203 16.9629L7.94727 17.002L5 18.9297V16.4473L4.36914 16.1953C2.70814 15.5333 2 13.993 2 11.043V7.54492C2 4.48692 4.48887 2 7.54688 2ZM11 3V4C13.947 4 16 6.635 16 9H17C17 6.162 14.536 3 11 3ZM6.00195 4.00977C5.7637 3.97389 5.51169 4.03045 5.30469 4.18945L4.7168 4.64258C4.0228 5.17558 3.80136 6.11648 4.19336 6.89648C4.93136 8.36348 6.16794 10.6239 7.21094 11.5859C8.49294 12.7699 10.5072 14.1733 12.2012 14.8633C12.9422 15.1653 13.7905 14.9527 14.3105 14.3457C14.4955 14.1297 14.6684 13.9099 14.8184 13.7109C15.1254 13.3029 15.0361 12.7248 14.6211 12.4258L12.75 11.0801C12.348 10.7911 11.7864 10.8707 11.4844 11.2617L11.1699 11.6094C10.9619 11.8394 10.6488 11.9604 10.3438 11.8984C9.86775 11.8024 9.11319 11.4916 8.24219 10.5586C7.52319 9.79059 7.11966 8.9733 6.97266 8.4043C6.88466 8.0643 7.00634 7.70937 7.27734 7.48438L7.5918 7.22266C7.9588 6.91866 8.03086 6.38605 7.75586 5.99805L6.61523 4.38672C6.46523 4.17422 6.2402 4.04564 6.00195 4.00977ZM11 5V6C12.514 6 14 7.486 14 9H15C15 6.944 13.056 5 11 5ZM11 7V8C11.645 8 12 8.355 12 9H13C13 7.803 12.196 7 11 7Z" fill="white"/>
</svg>
